<mxfile host="app.diagrams.net" modified="2023-09-30T07:33:25.886Z" agent="Mozilla/5.0 (Macintosh; Intel Mac OS X 10_15_7) AppleWebKit/537.36 (KHTML, like Gecko) Chrome/117.0.0.0 Safari/537.36" version="22.0.0" etag="18pOWLmPVYMWNSuO8L_g" type="github">
  <diagram name="Page-1" id="gfR2LYU7BOYrQf69nZu9">
    <mxGraphModel>
      <root>
        <mxCell id="0" />
        <mxCell id="1" parent="0" />
      </root>
    </mxGraphModel>
  </diagram>
</mxfile>
